<svg id="Layer_1" data-name="Layer 1" xmlns="http://www.w3.org/2000/svg" viewBox="0 0 1496 486"><title>tr</title><circle cx="253.73" cy="249" r="208.82" style="fill:#fff"/><path d="M510.88,186.59H659q32,0,46.28,12.56T719.6,240v92.67H680.78V245.12c0-10.64-1.59-17.71-4.85-21.16s-9.9-5.23-20-5.23H634.23V332.67H594.87V218.73H549.68V332.67h-38.8Z" style="fill:#231f20;fill-rule:evenodd"/><path d="M785.05,259.7c0,13.76,3.29,24.61,9.72,32.42s15.64,11.67,27.26,11.67,20.57-3.86,27.15-11.67,9.91-18.66,9.91-32.42-3.26-24.6-9.82-32.38S833.63,215.67,822,215.67s-20.58,3.87-27.14,11.65S785.05,245.89,785.05,259.7Zm114.51,0q0,34.41-20.92,54.91c-14,13.64-32.71,20.47-56.39,20.47s-42.41-6.83-56.55-20.56-21.11-32-21.11-54.82,7.07-41.12,21.11-54.93,33-20.71,56.55-20.71c23.4,0,42.07,6.86,56.2,20.62S899.56,236.8,899.56,259.73Z" style="fill:#231f20;fill-rule:evenodd"/><path d="M961.94,133.64v53H995c14.57,0,26.32,1.72,35.17,5.2A53.8,53.8,0,0,1,1053,209.05a69.89,69.89,0,0,1,11.83,22.16,83.74,83.74,0,0,1,4,26.56q0,35.09-18.75,55t-52.42,19.9H923.36v-199Zm23.54,84.53H961.94v83.19h26.54c14.61,0,25-3.12,30.93-9.3s9-16.64,9-31.4c0-15.16-3.21-26-9.88-32.6S1000.89,218.17,985.48,218.17Z" style="fill:#231f20;fill-rule:evenodd"/><rect x="1092.52" y="186.59" width="40.46" height="146.09" style="fill:#231f20"/><rect x="1165.98" y="133.64" width="40.47" height="199.03" style="fill:#231f20"/><rect x="1239.58" y="186.59" width="40.46" height="146.09" style="fill:#231f20"/><path d="M1237.58,146.14A21.85,21.85,0,1,1,1259.41,168,21.85,21.85,0,0,1,1237.58,146.14Z" style="fill:#231f20;fill-rule:evenodd"/><path d="M1090.9,146.14A21.85,21.85,0,1,1,1112.73,168,21.86,21.86,0,0,1,1090.9,146.14Z" style="fill:#231f20;fill-rule:evenodd"/><polygon points="1313.04 301.39 1399.54 218.17 1313.04 218.17 1313.04 186.59 1450.05 186.59 1450.05 218.11 1363.56 301.36 1450.05 301.36 1450.05 332.67 1313.04 332.67 1313.04 301.39" style="fill:#231f20;fill-rule:evenodd"/><path d="M937.58,366.11H923.89v-5.49H957.6v5.49H943.83V416.3h-6.25Z" style="fill:#231f20"/><path d="M997.2,416.3h-5.57V408c-3.16,6.09-9.33,9.48-16.56,9.48-13.16,0-21-10.24-21-21.37,0-11.9,8.65-21.37,21-21.37,8.66,0,14.6,5,16.56,9.63v-8.51h5.57Zm-37.62-20.17c.07,7.3,5.11,16.1,16.25,16.1a15.13,15.13,0,0,0,14.6-9.86,15.46,15.46,0,0,0,1.35-6.39,14.44,14.44,0,0,0-1.28-6.47,15.63,15.63,0,0,0-14.82-9.71,15.88,15.88,0,0,0-16.1,16.26Z" style="fill:#231f20"/><path d="M1007.46,360.62H1013v31.83l18.21-16.64h6.85l-19.49,17.77L1039,416.3h-6.55L1013,394.78V416.3h-5.57Z" style="fill:#231f20"/><path d="M1044.81,360.62h5.58v7.75h-5.58Zm0,15.19h5.58V416.3h-5.58Z" style="fill:#231f20"/><path d="M1060.47,375.81h5.27v8.43c3.31-5.87,9.18-9.55,16.93-9.55,13.62,0,20.77,11.06,20.77,21.52,0,11.29-8.2,21.22-20.77,21.22-9,0-14.74-5.2-16.62-9.4v23.62h-5.58ZM1097.88,396c0-7.6-5.35-16.18-16.26-16.18a16,16,0,0,0-11.44,4.75,16.71,16.71,0,0,0-4.52,11.58,15.82,15.82,0,0,0,16.1,16.1,15.82,15.82,0,0,0,16.12-16.17Z" style="fill:#231f20"/><path d="M1135.85,400.8c.9,9.26,7.67,11.21,11.13,11.21,5.8,0,11.14-4.44,11.14-10.61,0-7.82-6.7-9.55-13.17-11.66-4.51-1.36-14.22-4.22-14.22-14.75-.15-9.86,8-15.35,16.55-15.35,6.93,0,14.9,3.83,15.8,14.37h-6.16c-.68-3.61-2.49-9.11-9.86-9.11-5.57,0-10.17,3.76-10.17,9.56-.06,6.77,5.43,8.43,13.85,11.29,5.27,2,13.55,5,13.55,15.2,0,9.11-6.85,16.32-17.23,16.32-9.33,0-17.08-5.87-17.46-16.47Z" style="fill:#231f20"/><path d="M1171.77,360.62h5.57v7.75h-5.57Zm0,15.19h5.57V416.3h-5.57Z" style="fill:#231f20"/><path d="M1205.64,386c0-4.3-2.86-6.7-6.93-6.7-4.44,0-7.15,3-7,6.55.15,3.83,3.08,5.42,8,6.84,5.79,1.58,12.26,3.23,12.56,11.89.3,7.45-5.72,12.87-13.39,12.87-6.55,0-13.78-4.14-13.85-12.64h5.49c.22,5.56,4.37,8,8.43,8a7.5,7.5,0,0,0,7.83-7.6c-.16-4.59-3.16-6.47-10.17-8.51-5.79-1.72-10.3-4.06-10.45-10.46,0-7.3,5.8-11.58,12.64-11.58,5.64,0,12,3.08,12.34,11.29Z" style="fill:#231f20"/><path d="M1223.73,380.25h-8v-4.44h8V360.62h5.49v15.19h8.87v4.44h-8.87V416.3h-5.49Z" style="fill:#231f20"/><path d="M1243.68,397.64c.3,10.16,9,15.05,15.81,15a15,15,0,0,0,13.91-8.36h5.8a21.4,21.4,0,0,1-8.2,9.85,21.15,21.15,0,0,1-11.51,3.32c-14.08,0-21.38-11.22-21.38-21.3a21.27,21.27,0,1,1,42.44,1.51Zm31.38-4.44c-.38-7.08-7.22-14-15.57-13.77-8.74,0-15.21,6.4-15.73,13.77Z" style="fill:#231f20"/><path d="M1287.74,375.81H1293v6.4c2.56-5.12,8.2-7.52,12.79-7.52a14.26,14.26,0,0,1,11.06,4.59,20.66,20.66,0,0,1,2.63,4.22,18.61,18.61,0,0,1,2.94-4.3,15.2,15.2,0,0,1,11.13-4.51c4.15,0,8.13,1.2,10.92,4.06,3.53,3.53,4.58,7.91,4.58,15.05v22.5h-5.56V394c0-4.28-.68-8.12-3-10.75-1.66-2.11-4.22-3.39-8-3.39-3.53,0-7,1.43-8.88,4.22s-2.41,5.11-2.41,9.7v22.5h-5.57V393.8c.15-4.51-.52-7.14-2.11-9.64-1.88-2.62-4.73-4.2-8.87-4.28A10,10,0,0,0,1296,384c-1.73,2.33-2.71,5.41-2.71,9.71V416.3h-5.57Z" style="fill:#231f20"/><path d="M1359,360.62h5.58V416.3H1359Z" style="fill:#231f20"/><path d="M1377,397.64c.31,10.16,9,15.05,15.81,15a15,15,0,0,0,13.92-8.36h5.8a21.42,21.42,0,0,1-8.21,9.85,21.12,21.12,0,0,1-11.51,3.32c-14.07,0-21.37-11.22-21.37-21.3a21.27,21.27,0,1,1,42.44,1.51Zm31.38-4.44c-.37-7.08-7.22-14-15.57-13.77-8.74,0-15.21,6.4-15.73,13.77Z" style="fill:#231f20"/><path d="M1421.09,375.81h5.27v6.63c2.94-6,8.21-7.6,12.94-7.75v5.5h-.52c-7.83,0-12.19,4.88-12.19,14.06V416.3h-5.5Z" style="fill:#231f20"/><path d="M1444.58,360.62h5.58v7.75h-5.58Zm0,15.19h5.58V416.3h-5.58Z" style="fill:#231f20"/><path d="M301.93,45.78a166.5,166.5,0,0,1-3.78,319.35,4.93,4.93,0,0,1-2.75-9.46A138.83,138.83,0,0,0,243.07,85c-69,4.77-124.62,61-128.72,130a138.88,138.88,0,0,0,94.76,140.23,4.91,4.91,0,0,1,3.4,4.65V360a4.92,4.92,0,0,1-6.23,4.77A166.51,166.51,0,0,1,87.09,190.23C92.77,124,138.1,68.5,198.8,47.49,110.12,71.61,44.91,152.68,44.91,249c0,105.39,78.07,192.53,179.53,206.77V286.61a49,49,0,0,0,57.55,0v169.3C384,442.11,462.55,354.74,462.55,249,462.55,150.27,394,67.55,301.93,45.78ZM210.18,314.47a4.78,4.78,0,0,1,2.33,4.08v.16a4.84,4.84,0,0,1-7.06,4.3,103.7,103.7,0,0,1-55.39-103.74c5.21-47.71,43.59-86.18,91.3-91.47a103.8,103.8,0,0,1,57.55,196.32,4.82,4.82,0,0,1-4.52-8.51,82.5,82.5,0,0,0-50.58-153.46c-38.93,4.3-69.91,36.53-72.86,75.59A82.38,82.38,0,0,0,210.18,314.47Zm43-33.79A28.78,28.78,0,1,1,282,251.9,28.78,28.78,0,0,1,253.22,280.68Z" style="fill:#3dae2b"/></svg>