<svg xmlns="http://www.w3.org/2000/svg" width="48" height="48" viewBox="0 0 48 48">
  <g id="Group_7" data-name="Group 7" transform="translate(-1)">
    <g id="icon" transform="translate(1)">
      <path id="Path" d="M0,0H48V48H0Z" fill="none"/>
      <path id="Shape" d="M0,28.963c1.418-.107,7.183-.707,10.514-3.073C7.7,24.089-3.524,17.685,3.848.471q5.191,5.879,10.526,8A12.325,12.325,0,0,0,18.408,9.54l0,0A9.726,9.726,0,0,1,24.7.7,10.24,10.24,0,0,1,35.545,2.887c.226,0,.448.005.67.013A7.514,7.514,0,0,0,41,1.608c-.685,3.252-1.022,4.663-2.482,6.6,0,15.149-9.6,22.515-19.342,24.4a23.569,23.569,0,0,1-4.43.388C8.787,33,2.21,31.2,0,28.963Z" transform="translate(3 8)" fill="#100f0f"/>
    </g>
  </g>
</svg>
